<?xml version="1.0" standalone="no"?><!DOCTYPE svg PUBLIC "-//W3C//DTD SVG 1.1//EN" "http://www.w3.org/Graphics/SVG/1.1/DTD/svg11.dtd"><svg t="1570788728891" class="icon" viewBox="0 0 1024 1024" version="1.1" xmlns="http://www.w3.org/2000/svg" p-id="6566" xmlns:xlink="http://www.w3.org/1999/xlink" width="200" height="200"><defs><style type="text/css"></style></defs><path d="M773.273281 805.932707H228.953414c-18.037089 0-32.659426-14.621272-32.659426-32.659426V588.204973h-76.204973c-18.037089 0-32.659426-14.621272-32.659427-32.659426V32.997921c0-18.037089 14.622337-32.659426 32.659427-32.659426h762.048665c18.037089 0 32.659426 14.622337 32.659426 32.659426v179.144649c0 18.037089-14.621272 32.659426-32.659426 32.659426s-32.659426-14.622337-32.659426-32.659426V65.657347H152.748441v457.229838h76.204973c18.037089 0 32.659426 14.621272 32.659426 32.659426v185.068308h479.002079V555.545547c0-18.037089 14.621272-32.659426 32.659426-32.659426h76.206038v-87.328466c0-18.037089 14.621272-32.659426 32.659426-32.659426s32.659426 14.621272 32.659426 32.659426v119.986827c0 18.037089-14.621272 32.659426-32.659426 32.659427h-76.206038v185.068307c-0.001064 18.038154-14.623401 32.660491-32.66049 32.660491z" p-id="6567"></path><path d="M185.407867 120.089015h544.320931c12.025081 0 21.773306 9.748225 21.773306 21.773305v500.775385c0 12.025081-9.748225 21.773306-21.773306 21.773305H185.407867c-12.025081 0-21.773306-9.748225-21.773306-21.773305V141.86232c0-12.025081 9.748225-21.773306 21.773306-21.773305z" fill="#E6E6E6" p-id="6568"></path><path d="M991.002079 1023.661505H32.997921C14.960832 1023.661505 0.338495 1009.040233 0.338495 991.002079V555.545547c0-18.037089 14.621272-32.659426 32.659426-32.659426h195.955493c18.037089 0 32.659426 14.621272 32.659426 32.659426v185.068307h479.002079V555.545547c0-18.037089 14.621272-32.659426 32.659426-32.659426H991.002079c18.037089 0 32.659426 14.621272 32.659426 32.659426V991.002079c0 18.037089-14.622337 32.659426-32.659426 32.659426zM65.657347 958.342653h892.68637V588.204973H805.932707v185.068308c0 18.037089-14.621272 32.659426-32.659426 32.659426H228.953414c-18.037089 0-32.659426-14.621272-32.659426-32.659426V588.204973H65.657347v370.13768zM656.323326 290.10069H329.731193c-18.037089 0-32.659426-14.621272-32.659426-32.659426s14.621272-32.659426 32.659426-32.659426h326.592133c18.037089 0 32.659426 14.621272 32.659427 32.659426s-14.622337 32.659426-32.659427 32.659426zM656.323326 420.738395H329.731193c-18.037089 0-32.659426-14.621272-32.659426-32.659426s14.621272-32.659426 32.659426-32.659426h326.592133c18.037089 0 32.659426 14.621272 32.659427 32.659426s-14.622337 32.659426-32.659427 32.659426z" p-id="6569"></path><path d="M656.323326 551.375035H329.731193c-18.037089 0-32.659426-14.621272-32.659426-32.659426s14.621272-32.659426 32.659426-32.659426h326.592133c18.037089 0 32.659426 14.621272 32.659427 32.659426s-14.622337 32.659426-32.659427 32.659426z" p-id="6570"></path></svg>