<?xml version="1.0" standalone="no"?><!DOCTYPE svg PUBLIC "-//W3C//DTD SVG 1.1//EN" "http://www.w3.org/Graphics/SVG/1.1/DTD/svg11.dtd"><svg t="1570789464389" class="icon" viewBox="0 0 1024 1024" version="1.1" xmlns="http://www.w3.org/2000/svg" p-id="10033" xmlns:xlink="http://www.w3.org/1999/xlink" width="200" height="200"><defs><style type="text/css"></style></defs><path d="M192 96A96 96 0 0 0 96 192v640A96 96 0 0 0 192 928h640a96 96 0 0 0 96-96V192A96 96 0 0 0 832 96H192zM192 0h640a192 192 0 0 1 192 192v640a192 192 0 0 1-192 192H192a192 192 0 0 1-192-192V192a192 192 0 0 1 192-192z" fill="#727484" p-id="10034"></path><path d="M346.496 440.96l113.152 113.088 248.96-248.96 90.432 90.56-339.392 339.392L256 531.392 346.496 440.96z" fill="#68A2FD" p-id="10035"></path></svg>