<?xml version="1.0" standalone="no"?><!DOCTYPE svg PUBLIC "-//W3C//DTD SVG 1.1//EN" "http://www.w3.org/Graphics/SVG/1.1/DTD/svg11.dtd"><svg t="1570789379934" class="icon" viewBox="0 0 1024 1024" version="1.1" xmlns="http://www.w3.org/2000/svg" p-id="9704" xmlns:xlink="http://www.w3.org/1999/xlink" width="200" height="200"><defs><style type="text/css"></style></defs><path d="M515.584 977.408c-6.656 0-13.312-2.56-17.92-7.68l-399.36-398.848C-10.24 462.848-10.24 286.72 98.304 178.688c65.024-65.024 157.696-93.696 248.32-76.8 13.824 2.56 23.04 15.872 20.48 29.696s-15.872 23.04-29.696 20.48C263.168 138.24 187.392 161.792 134.144 214.528 46.08 303.104 46.08 446.464 134.144 535.04l399.36 398.848c10.24 10.24 10.24 26.112 0 36.352-4.608 4.608-11.264 7.168-17.92 7.168z" p-id="9705"></path><path d="M967.168 498.688c-3.072 0-6.656-0.512-9.728-2.048-12.8-5.632-19.456-20.48-13.824-33.28 35.328-84.992 16.384-184.32-48.128-247.296-88.576-88.576-231.936-88.576-320.512 0L383.488 406.016c-10.24 9.728-26.112 9.728-36.352 0-9.728-10.24-9.728-26.112 0-36.352L538.624 179.2c108.032-108.032 284.16-108.032 392.704 0 78.848 77.312 102.912 199.68 59.392 303.616-4.096 9.728-13.312 15.872-23.552 15.872zM513.024 988.16l-373.76-373.248c-10.24-10.24-10.24-26.112 0-36.352s26.112-10.24 36.352 0l337.92 337.408 33.28-32.768c10.24-9.728 26.112-9.728 36.352 0 9.728 10.24 9.728 26.112 0 36.352L513.024 988.16zM396.288 607.232c-6.656 0-13.312-2.56-18.432-7.68-9.728-10.24-9.728-26.112 0-36.352l109.056-108.032c10.24-9.728 26.112-9.728 36.352 0 9.728 10.24 9.728 26.112 0 36.352l-109.056 108.032c-5.12 5.12-11.264 7.68-17.92 7.68zM513.536 722.944c-6.656 0-13.312-2.56-17.92-7.68-9.728-10.24-9.728-26.112 0-36.352l108.032-107.52c10.24-9.728 26.112-9.728 36.352 0 9.728 10.24 9.728 26.112 0 36.352l-108.032 107.52c-5.12 5.12-11.776 7.68-18.432 7.68zM821.248 904.704c-75.776 0-137.216-61.44-137.216-137.216s61.44-137.216 137.216-137.216 137.216 61.44 137.216 137.216-61.44 137.216-137.216 137.216z m0-223.232c-47.616 0-86.016 38.4-86.016 86.016s38.4 86.016 86.016 86.016 86.016-38.4 86.016-86.016-38.4-86.016-86.016-86.016z" p-id="9706"></path><path d="M820.736 663.04c-14.336 0-25.6-11.264-25.6-25.6v-40.448c0-14.336 11.264-25.6 25.6-25.6s25.6 11.264 25.6 25.6v40.448c0 14.336-11.264 25.6-25.6 25.6zM729.6 700.928c-6.656 0-13.312-2.56-17.92-7.68l-28.672-28.672c-10.24-10.24-10.24-26.112 0-36.352s26.112-10.24 36.352 0l28.672 28.672c10.24 10.24 10.24 26.112 0 36.352-5.12 5.12-11.776 7.68-18.432 7.68zM692.224 793.6h-39.936c-14.336 0-25.6-11.264-25.6-25.6s11.264-25.6 25.6-25.6h39.936c14.336 0 25.6 11.264 25.6 25.6s-11.264 25.6-25.6 25.6zM702.976 913.92c-6.144 0-12.8-2.56-17.408-7.168-10.24-9.728-10.752-26.112-1.024-36.352l28.16-29.696c9.728-10.24 26.112-10.752 36.352-1.024 10.24 9.728 10.752 26.112 1.024 36.352l-28.16 29.696c-5.632 5.632-12.288 8.192-18.944 8.192zM823.296 962.048c-14.336 0-25.6-11.264-25.6-25.6v-39.936c0-14.336 11.264-25.6 25.6-25.6s25.6 11.264 25.6 25.6v39.936c0 14.336-11.264 25.6-25.6 25.6zM942.592 911.36c-6.144 0-12.8-2.56-17.92-7.168l-28.672-27.648c-10.24-9.728-10.24-26.112-0.512-36.352s26.112-10.24 36.352-0.512l28.672 27.648c10.24 9.728 10.24 26.112 0.512 36.352-5.12 5.12-11.776 7.68-18.432 7.68zM991.744 791.552h-40.448c-14.336 0-25.6-11.264-25.6-25.6s11.264-25.6 25.6-25.6h40.448c14.336 0 25.6 11.264 25.6 25.6s-11.264 25.6-25.6 25.6zM913.408 700.416c-6.656 0-12.8-2.56-17.92-7.168-10.24-9.728-10.24-26.112-0.512-36.352l28.16-28.672c9.728-10.24 26.112-10.24 36.352-0.512s10.24 26.112 0.512 36.352l-28.16 28.672c-5.12 5.12-11.776 7.68-18.432 7.68z" p-id="9707"></path></svg>