<?xml version="1.0" standalone="no"?><!DOCTYPE svg PUBLIC "-//W3C//DTD SVG 1.1//EN" "http://www.w3.org/Graphics/SVG/1.1/DTD/svg11.dtd"><svg t="1571820360890" class="icon" viewBox="0 0 1024 1024" version="1.1" xmlns="http://www.w3.org/2000/svg" p-id="2785" xmlns:xlink="http://www.w3.org/1999/xlink" width="200" height="200"><defs><style type="text/css"></style></defs><path d="M707.5 391.8m-10 0a10 10 0 1 0 20 0 10 10 0 1 0-20 0Z" fill="#E73B37" p-id="2786"></path><path d="M512 108c49.4 0 97.4 9.7 142.5 28.7 43.6 18.4 82.7 44.8 116.4 78.5 33.6 33.6 60 72.8 78.5 116.4 19.1 45.1 28.7 93 28.7 142.5 0 49.4-9.7 97.4-28.7 142.4-18.4 43.6-44.8 82.7-78.5 116.4-33.6 33.6-72.8 60-116.4 78.5-45.1 19.1-93 28.7-142.5 28.7-40.6 0-80.5-6.6-118.6-19.6l-18.9-6.5-17.3 10-103.6 59.8V733.7L242 721.1c-61.9-67.6-96-155.4-96-247.1 0-49.4 9.7-97.4 28.7-142.5 18.4-43.6 44.8-82.7 78.5-116.4 33.6-33.6 72.8-60 116.4-78.5 45-18.9 93-28.6 142.4-28.6m0-44c-226.4 0-410 183.6-410 410 0 106.7 40.8 203.9 107.6 276.8v209.1L379.2 862c41.6 14.3 86.3 22 132.8 22 226.4 0 410-183.6 410-410S738.4 64 512 64z" fill="#39393A" p-id="2787"></path><path d="M306.5 383.8h324v16h-324z" fill="#39393A" p-id="2788"></path><path d="M307.2 496.2h244.9v16H307.2z" fill="#E73B37" p-id="2789"></path><path d="M615.2 496.2h102.3v16H615.2zM474.4 624h243.1v16H474.4z" fill="#39393A" p-id="2790"></path><path d="M307.2 624h95.7v16h-95.7z" fill="#E73B37" p-id="2791"></path></svg>